<svg width="153" height="39" viewBox="0 0 153 39" fill="none" xmlns="http://www.w3.org/2000/svg">
<path d="M35.3108 27.1746L19.3086 35.9922L2 27.5012V19.3368M2 11.537L19.3086 3.00793L35.3108 11.4989L19.3086 19.0102L2 11.537ZM2 11.537V19.3368M35.3108 19.3368L19.3086 27.5012L2 19.3368" stroke="#585FE0" stroke-width="3.26577" stroke-linecap="round" stroke-linejoin="round"/>
<path d="M60.3656 21.4495C60.3656 21.9721 60.3307 22.4423 60.2611 22.8604H49.68C49.7671 23.9054 50.1328 24.724 50.7773 25.3162C51.4217 25.9084 52.2142 26.2045 53.1548 26.2045C54.5133 26.2045 55.48 25.621 56.0548 24.4541H59.9998C59.5818 25.8474 58.7806 26.997 57.5962 27.9027C56.4118 28.791 54.9575 29.2351 53.2331 29.2351C51.8397 29.2351 50.5857 28.9303 49.471 28.3207C48.3737 27.6937 47.5115 26.8141 46.8845 25.682C46.2749 24.5498 45.9701 23.2435 45.9701 21.7631C45.9701 20.2652 46.2749 18.9501 46.8845 17.818C47.4941 16.6859 48.3476 15.815 49.4448 15.2054C50.5421 14.5958 51.8049 14.291 53.2331 14.291C54.6091 14.291 55.837 14.5871 56.9169 15.1793C58.0142 15.7715 58.859 16.6162 59.4512 17.7135C60.0608 18.7934 60.3656 20.0387 60.3656 21.4495ZM56.5773 20.4045C56.5599 19.464 56.2202 18.715 55.5584 18.1577C54.8965 17.5829 54.0866 17.2955 53.1286 17.2955C52.2229 17.2955 51.4566 17.5742 50.8295 18.1315C50.2199 18.6715 49.8454 19.4291 49.7061 20.4045H56.5773ZM62.0948 21.7108C62.0948 20.2477 62.3822 18.9501 62.957 17.818C63.5491 16.6859 64.3503 15.815 65.3606 15.2054C66.3708 14.5958 67.4942 14.291 68.7308 14.291C69.6714 14.291 70.5684 14.5 71.4218 14.918C72.2753 15.3186 72.9546 15.8586 73.4597 16.5378V9.66667H77.1696V29H73.4597V26.8577C73.0068 27.5718 72.3711 28.1465 71.5525 28.582C70.7338 29.0174 69.7846 29.2351 68.7047 29.2351C67.4855 29.2351 66.3708 28.9216 65.3606 28.2946C64.3503 27.6676 63.5491 26.788 62.957 25.6559C62.3822 24.5063 62.0948 23.1913 62.0948 21.7108ZM73.4858 21.7631C73.4858 20.8748 73.3116 20.1171 72.9633 19.4901C72.6149 18.8456 72.1446 18.358 71.5525 18.027C70.9603 17.6787 70.3245 17.5045 69.6452 17.5045C68.966 17.5045 68.3389 17.67 67.7642 18.0009C67.1894 18.3318 66.7191 18.8195 66.3534 19.464C66.005 20.091 65.8308 20.8399 65.8308 21.7108C65.8308 22.5817 66.005 23.348 66.3534 24.0099C66.7191 24.6544 67.1894 25.1508 67.7642 25.4991C68.3564 25.8474 68.9834 26.0216 69.6452 26.0216C70.3245 26.0216 70.9603 25.8562 71.5525 25.5252C72.1446 25.1769 72.6149 24.6892 72.9633 24.0622C73.3116 23.4177 73.4858 22.6514 73.4858 21.7631ZM94.4059 14.5261V29H90.7221V27.1712C90.2518 27.7982 89.6335 28.2946 88.8671 28.6604C88.1182 29.0087 87.2996 29.1829 86.4113 29.1829C85.2791 29.1829 84.2776 28.9477 83.4068 28.4775C82.5359 27.9898 81.8479 27.2844 81.3428 26.3613C80.8551 25.4207 80.6113 24.306 80.6113 23.0171V14.5261H84.2689V22.4946C84.2689 23.6441 84.5563 24.5324 85.1311 25.1595C85.7059 25.7691 86.4897 26.0739 87.4824 26.0739C88.4927 26.0739 89.2852 25.7691 89.8599 25.1595C90.4347 24.5324 90.7221 23.6441 90.7221 22.4946V14.5261H94.4059ZM106.035 14.3171C107.76 14.3171 109.153 14.8658 110.216 15.9631C111.278 17.0429 111.809 18.5583 111.809 20.509V29H108.152V21.0054C108.152 19.8559 107.864 18.9763 107.29 18.3667C106.715 17.7396 105.931 17.4261 104.938 17.4261C103.928 17.4261 103.127 17.7396 102.535 18.3667C101.96 18.9763 101.672 19.8559 101.672 21.0054V29H98.0147V14.5261H101.672V16.3288C102.16 15.7018 102.778 15.2141 103.527 14.8658C104.294 14.5 105.13 14.3171 106.035 14.3171ZM117.143 12.8018C116.498 12.8018 115.958 12.6015 115.523 12.2009C115.105 11.7829 114.896 11.2691 114.896 10.6595C114.896 10.0498 115.105 9.54474 115.523 9.14414C115.958 8.72612 116.498 8.51712 117.143 8.51712C117.787 8.51712 118.318 8.72612 118.736 9.14414C119.172 9.54474 119.389 10.0498 119.389 10.6595C119.389 11.2691 119.172 11.7829 118.736 12.2009C118.318 12.6015 117.787 12.8018 117.143 12.8018ZM118.945 14.5261V29H115.288V14.5261H118.945ZM126.818 17.5306V24.5324C126.818 25.0201 126.931 25.3772 127.157 25.6036C127.401 25.8126 127.802 25.9171 128.359 25.9171H130.057V29H127.758C124.675 29 123.134 27.5021 123.134 24.5063V17.5306H121.409V14.5261H123.134V10.9468H126.818V14.5261H130.057V17.5306H126.818ZM146.535 14.5261L137.574 35.845H133.681L136.816 28.6342L131.016 14.5261H135.118L138.854 24.6369L142.642 14.5261H146.535Z" fill="#2D2F31"/>
</svg>
