<svg width="190" height="50" viewBox="0 0 190 50" fill="none" xmlns="http://www.w3.org/2000/svg">
<path d="M45.7297 34.8447L25.2027 46.1555L3 35.2636V24.7907M3 14.7855L25.2027 3.84473L45.7297 14.7366L25.2027 24.3718L3 14.7855ZM3 14.7855V24.7907M45.7297 24.7907L25.2027 35.2636L3 24.7907" stroke="#585FE0" stroke-width="4.18919" stroke-linecap="round" stroke-linejoin="round"/>
<path d="M77.8693 27.3146C77.8693 27.9849 77.8246 28.5881 77.7352 29.1243H64.1622C64.2739 30.4649 64.7431 31.515 65.5698 32.2746C66.3965 33.0342 67.413 33.4141 68.6195 33.4141C70.3622 33.4141 71.6022 32.6656 72.3395 31.1686H77.4001C76.8638 32.956 75.8361 34.4306 74.3168 35.5924C72.7975 36.7319 70.932 37.3016 68.7201 37.3016C66.9327 37.3016 65.324 36.9106 63.8941 36.1286C62.4866 35.3243 61.3806 34.196 60.5763 32.7438C59.7943 31.2915 59.4033 29.6159 59.4033 27.7168C59.4033 25.7953 59.7943 24.1085 60.5763 22.6562C61.3583 21.204 62.453 20.0868 63.8606 19.3049C65.2682 18.5229 66.888 18.1319 68.7201 18.1319C70.4851 18.1319 72.0602 18.5117 73.4455 19.2714C74.853 20.031 75.9366 21.1146 76.6963 22.5222C77.4783 23.9074 77.8693 25.5049 77.8693 27.3146ZM73.0098 25.9741C72.9875 24.7676 72.5518 23.8068 71.7028 23.0919C70.8538 22.3546 69.8148 21.9859 68.586 21.9859C67.4242 21.9859 66.4411 22.3434 65.6368 23.0584C64.8548 23.751 64.3745 24.7229 64.1957 25.9741H73.0098ZM80.0874 27.6497C80.0874 25.773 80.4561 24.1085 81.1934 22.6562C81.953 21.204 82.9808 20.0868 84.2766 19.3049C85.5725 18.5229 87.0136 18.1319 88.5999 18.1319C89.8063 18.1319 90.957 18.4 92.0518 18.9362C93.1465 19.4501 94.0179 20.1427 94.6658 21.0141V12.2H99.4247V37H94.6658V34.2519C94.0849 35.1679 93.2694 35.9052 92.2193 36.4638C91.1692 37.0223 89.9516 37.3016 88.5663 37.3016C87.0024 37.3016 85.5725 36.8995 84.2766 36.0951C82.9808 35.2908 81.953 34.1625 81.1934 32.7103C80.4561 31.2357 80.0874 29.5488 80.0874 27.6497ZM94.6993 27.7168C94.6993 26.5773 94.4759 25.6054 94.0291 24.8011C93.5822 23.9744 92.979 23.3488 92.2193 22.9243C91.4597 22.4775 90.6442 22.2541 89.7728 22.2541C88.9015 22.2541 88.0972 22.4663 87.3599 22.8908C86.6226 23.3153 86.0193 23.9409 85.5501 24.7676C85.1033 25.5719 84.8799 26.5326 84.8799 27.6497C84.8799 28.7668 85.1033 29.7499 85.5501 30.5989C86.0193 31.4256 86.6226 32.0623 87.3599 32.5092C88.1195 32.956 88.9238 33.1795 89.7728 33.1795C90.6442 33.1795 91.4597 32.9672 92.2193 32.5427C92.979 32.0959 93.5822 31.4703 94.0291 30.6659C94.4759 29.8393 94.6993 28.8562 94.6993 27.7168ZM121.535 18.4335V37H116.809V34.6541C116.206 35.4584 115.413 36.0951 114.43 36.5643C113.469 37.0112 112.419 37.2346 111.28 37.2346C109.827 37.2346 108.543 36.933 107.426 36.3297C106.308 35.7041 105.426 34.7993 104.778 33.6151C104.152 32.4086 103.84 30.9787 103.84 29.3254V18.4335H108.531V28.6551C108.531 30.1297 108.9 31.2692 109.637 32.0735C110.375 32.8555 111.38 33.2465 112.654 33.2465C113.95 33.2465 114.966 32.8555 115.703 32.0735C116.441 31.2692 116.809 30.1297 116.809 28.6551V18.4335H121.535ZM136.453 18.1654C138.665 18.1654 140.452 18.8692 141.815 20.2768C143.178 21.662 143.859 23.6058 143.859 26.1081V37H139.167V26.7449C139.167 25.2703 138.799 24.142 138.061 23.36C137.324 22.5557 136.319 22.1535 135.045 22.1535C133.749 22.1535 132.722 22.5557 131.962 23.36C131.225 24.142 130.856 25.2703 130.856 26.7449V37H126.164V18.4335H130.856V20.7459C131.482 19.9416 132.275 19.316 133.235 18.8692C134.218 18.4 135.291 18.1654 136.453 18.1654ZM150.7 16.2216C149.874 16.2216 149.181 15.9647 148.623 15.4508C148.086 14.9146 147.818 14.2555 147.818 13.4735C147.818 12.6915 148.086 12.0436 148.623 11.5297C149.181 10.9935 149.874 10.7254 150.7 10.7254C151.527 10.7254 152.209 10.9935 152.745 11.5297C153.303 12.0436 153.583 12.6915 153.583 13.4735C153.583 14.2555 153.303 14.9146 152.745 15.4508C152.209 15.9647 151.527 16.2216 150.7 16.2216ZM153.013 18.4335V37H148.321V18.4335H153.013ZM163.111 22.2876V31.2692C163.111 31.8948 163.256 32.3528 163.547 32.6432C163.86 32.9114 164.373 33.0454 165.088 33.0454H167.267V37H164.318C160.363 37 158.386 35.0786 158.386 31.2357V22.2876H156.174V18.4335H158.386V13.8422H163.111V18.4335H167.267V22.2876H163.111ZM188.404 18.4335L176.908 45.7805H171.915L175.937 36.5308L168.497 18.4335H173.758L178.551 31.4032L183.41 18.4335H188.404Z" fill="white"/>
</svg>
